<svg width="56.6934" height="56.6934" xmlns="http://www.w3.org/2000/svg">

 <g>
  <title>background</title>
  <rect fill="none" id="canvas_background" height="402" width="582" y="-1" x="-1"/>
 </g>
 <g>
  <title>Layer 1</title>
  <polygon fill="#ffffff" id="svg_1" points="29.3938,31.666 39.309,38.5604 39.309,24.8362 34.9235,27.8569 "/>
  <path fill="#ffffff" id="svg_2" d="m28.3472,3.9229c-13.5996,0 -24.625,11.0234 -24.625,24.623c0,13.5997 11.0254,24.625 24.625,24.625c13.5986,0 24.624,-11.0253 24.624,-24.625c0,-13.5996 -11.0254,-24.623 -24.624,-24.623zm11.5669,35.7865l0,0.0007l-23.1367,0l-0.8704,0c-1.3447,0 -2.4451,-1.1003 -2.4451,-2.4451l0,-16.7023c0,-1.3448 1.1003,-2.4451 2.4451,-2.4451l0.0096,0.0072l-0.0096,-0.0078l24.9518,0c1.3447,0 2.445,1.1002 2.445,2.4449l0,0.7087l0.0007,-0.0005l-0.0007,0.0007l0.004,15.9963c-0.0584,1.778 -0.8288,2.4126 -3.3937,2.4423z"/>
  <path fill="#ffffff" id="svg_3" d="m28.3421,32.2622c-0.1196,0 -0.2391,-0.0359 -0.3419,-0.1073l-0.1786,-0.1244l-10.1835,7.0811l21.4153,0l-10.1863,-7.0829c0,0 -0.4064,0.2335 -0.525,0.2335z"/>
  <polygon id="svg_4" points="40.858,18.1176 40.8587,18.117 40.8565,18.1187 "/>
  <polygon fill="#ffffff" id="svg_5" points="39.037,18.7154 17.7191,18.7154 28.3432,26.5924 "/>
  <polygon fill="#ffffff" id="svg_6" points="27.2877,31.659 17.382,24.8359 17.3764,38.5647 27.2976,31.666 "/>
 </g>
</svg>